{"accessors":[{"bufferView":0,"byteOffset":0,"componentType":5126,"count":22413,"max":[0.30142301321029663,0.23108400404453278,0.23405300080776215],"min":[-0.3363710045814514,-0.13449999690055847,-0.207396999001503],"type":"VEC3"},{"bufferView":1,"byteOffset":0,"componentType":5126,"count":22413,"type":"VEC3"},{"bufferView":2,"byteOffset":0,"componentType":5125,"count":134466,"type":"SCALAR"}],"asset":{"generator":"VTK","version":"2.0"},"bufferViews":[{"buffer":0,"byteLength":268956,"byteOffset":0},{"buffer":1,"byteLength":268956,"byteOffset":0},{"buffer":2,"byteLength":537864,"byteOffset":0}],"buffers":[{"byteLength":268956,"uri":"data:application/octet-stream;base64,"},{"byteLength":268956,"uri":"data:application/octet-stream;base64,"},{"byteLength":537864,"uri":"data:application/octet-stream;base64,"}],"cameras":[{"perspective":{"aspectRatio":1.3333333333333333,"yfov":0.5235987755982988,"zfar":1000.01,"znear":0.01},"type":"perspective"}],"materials":[{"pbrMetallicRoughness":{"baseColorFactor":[1.0,1.0,1.0,1.0],"metallicFactor":0.0,"roughnessFactor":1.0}}],"meshes":[{"name":"mesh0","primitives":[{"attributes":{"NORMAL":1,"POSITION":0},"indices":2,"material":0,"mode":4}]}],"nodes":[{"matrix":[0.0,0.0,1.0000000000000004,0.0,1.0000000000000004,0.0,0.0,0.0,0.0,1.0000000000000004,0.0,0.0,0.0,0.0,0.0,1.0],"mesh":0,"name":"mesh0"},{"camera":0,"matrix":[1.0,-0.0,0.0,-0.0,-0.0,1.0,-0.0,0.0,0.0,-0.0,1.0,-0.0,-0.0,0.0,1.0,1.0],"name":"Camera Node"},{"children":[0,1],"name":"Renderer Node"}],"scene":0,"scenes":[{"name":"Layer 0","nodes":[2]}]}