{"accessors":[{"bufferView":0,"byteOffset":0,"componentType":5126,"count":1008,"max":[0.29626423120498657,0.3607178330421448,0.23945707082748413],"min":[-0.2955641448497772,-0.13360649347305298,-0.24783706665039063],"type":"VEC3"},{"bufferView":1,"byteOffset":0,"componentType":5125,"count":142,"type":"SCALAR"},{"bufferView":2,"byteOffset":0,"componentType":5125,"count":10077,"type":"SCALAR"}],"asset":{"generator":"VTK","version":"2.0"},"bufferViews":[{"buffer":0,"byteLength":12096,"byteOffset":0},{"buffer":1,"byteLength":568,"byteOffset":0},{"buffer":2,"byteLength":40308,"byteOffset":0}],"buffers":[{"byteLength":12096,"uri":"data:application/octet-stream;base64,"},{"byteLength":568,"uri":"data:application/octet-stream;base64,"},{"byteLength":40308,"uri":"data:application/octet-stream;base64,"}],"cameras":[{"perspective":{"aspectRatio":1.3333333333333333,"yfov":0.5235987755982988,"zfar":1000.01,"znear":0.01},"type":"perspective"}],"materials":[{"pbrMetallicRoughness":{"baseColorFactor":[1.0,1.0,1.0,1.0],"metallicFactor":0.0,"roughnessFactor":1.0}}],"meshes":[{"name":"mesh0","primitives":[{"attributes":{"POSITION":0},"indices":1,"material":0,"mode":1},{"attributes":{"POSITION":0},"indices":2,"mode":4}]}],"nodes":[{"matrix":[0.0,0.0,1.0000000000000004,0.0,1.0000000000000004,0.0,0.0,0.0,0.0,1.0000000000000004,0.0,0.0,0.0,0.0,0.0,1.0],"mesh":0,"name":"mesh0"},{"camera":0,"matrix":[1.0,-0.0,0.0,-0.0,-0.0,1.0,-0.0,0.0,0.0,-0.0,1.0,-0.0,-0.0,0.0,1.0,1.0],"name":"Camera Node"},{"children":[0,1],"name":"Renderer Node"}],"scene":0,"scenes":[{"name":"Layer 0","nodes":[2]}]}