{"accessors":[{"bufferView":0,"byteOffset":0,"componentType":5126,"count":4096,"max":[0.9998559951782227,0.5692989826202393,0.6097260117530823],"min":[-0.9998390078544617,-0.5692409873008728,-0.6095550060272217],"type":"VEC3"},{"bufferView":1,"byteOffset":0,"componentType":5126,"count":4096,"type":"VEC3"},{"bufferView":2,"byteOffset":0,"componentType":5126,"count":4096,"normalized":false,"type":"VEC2"},{"bufferView":3,"byteOffset":0,"componentType":5125,"count":12000,"type":"SCALAR"}],"asset":{"generator":"VTK","version":"2.0"},"bufferViews":[{"buffer":0,"byteLength":49152,"byteOffset":0},{"buffer":1,"byteLength":49152,"byteOffset":0},{"buffer":2,"byteLength":32768,"byteOffset":0},{"buffer":3,"byteLength":48000,"byteOffset":0},{"buffer":4,"byteLength":677,"byteOffset":0}],"buffers":[{"byteLength":49152,"uri":"data:application/octet-stream;base64,"},{"byteLength":49152,"uri":"data:application/octet-stream;base64,"},{"byteLength":32768,"uri":"data:application/octet-stream;base64,"},{"byteLength":48000,"uri":"data:application/octet-stream;base64,"},{"byteLength":677,"uri":"data:application/octet-stream;base64,"}],"cameras":[{"perspective":{"aspectRatio":1.3333333333333333,"yfov":0.5235987755982988,"zfar":1000.01,"znear":0.01},"type":"perspective"}],"images":[{"bufferView":4,"mimeType":"image/png"}],"materials":[{"pbrMetallicRoughness":{"baseColorFactor":[1.0,1.0,1.0,1.0],"baseColorTexture":{"index":0,"texCoord":0},"metallicFactor":0.0,"roughnessFactor":1.0}}],"meshes":[{"name":"mesh0","primitives":[{"attributes":{"NORMAL":1,"POSITION":0,"TEXCOORD_0":2},"indices":3,"material":0,"mode":4}]}],"nodes":[{"matrix":[0.0,0.0,1.0000000000000004,0.0,1.0000000000000004,0.0,0.0,0.0,0.0,1.0000000000000004,0.0,0.0,0.0,0.0,0.0,1.0],"mesh":0,"name":"mesh0"},{"camera":0,"matrix":[1.0,-0.0,0.0,-0.0,-0.0,1.0,-0.0,0.0,0.0,-0.0,1.0,-0.0,-0.0,0.0,1.0,1.0],"name":"Camera Node"},{"children":[0,1],"name":"Renderer Node"}],"samplers":[{"magFilter":9728,"minFilter":9728,"wrapS":10497,"wrapT":10497}],"scene":0,"scenes":[{"name":"Layer 0","nodes":[2]}],"textures":[{"sampler":0,"source":0}]}