{"accessors":[{"bufferView":0,"byteOffset":0,"componentType":5126,"count":24349,"max":[0.23569999635219574,0.269320011138916,0.45096901059150696],"min":[-0.26809000968933105,-0.08337579667568207,-0.2610819935798645],"type":"VEC3"},{"bufferView":1,"byteOffset":0,"componentType":5126,"count":24349,"type":"VEC3"},{"bufferView":2,"byteOffset":0,"componentType":5125,"count":147780,"type":"SCALAR"}],"asset":{"generator":"VTK","version":"2.0"},"bufferViews":[{"buffer":0,"byteLength":292188,"byteOffset":0},{"buffer":1,"byteLength":292188,"byteOffset":0},{"buffer":2,"byteLength":591120,"byteOffset":0}],"buffers":[{"byteLength":292188,"uri":"data:application/octet-stream;base64,"},{"byteLength":292188,"uri":"data:application/octet-stream;base64,"},{"byteLength":591120,"uri":"data:application/octet-stream;base64,"}],"cameras":[{"perspective":{"aspectRatio":1.3333333333333333,"yfov":0.5235987755982988,"zfar":1000.01,"znear":0.01},"type":"perspective"}],"materials":[{"pbrMetallicRoughness":{"baseColorFactor":[1.0,1.0,1.0,1.0],"metallicFactor":0.0,"roughnessFactor":1.0}}],"meshes":[{"name":"mesh0","primitives":[{"attributes":{"NORMAL":1,"POSITION":0},"indices":2,"material":0,"mode":4}]}],"nodes":[{"matrix":[0.0,0.0,1.0000000000000004,0.0,1.0000000000000004,0.0,0.0,0.0,0.0,1.0000000000000004,0.0,0.0,0.0,0.0,0.0,1.0],"mesh":0,"name":"mesh0"},{"camera":0,"matrix":[1.0,-0.0,0.0,-0.0,-0.0,1.0,-0.0,0.0,0.0,-0.0,1.0,-0.0,-0.0,0.0,1.0,1.0],"name":"Camera Node"},{"children":[0,1],"name":"Renderer Node"}],"scene":0,"scenes":[{"name":"Layer 0","nodes":[2]}]}