{"accessors":[{"bufferView":0,"byteOffset":0,"componentType":5126,"count":21160,"max":[0.3029339909553528,0.2919769883155823,0.2404559999704361],"min":[-0.31738799810409546,-0.2435629963874817,-0.2817069888114929],"type":"VEC3"},{"bufferView":1,"byteOffset":0,"componentType":5126,"count":21160,"type":"VEC3"},{"bufferView":2,"byteOffset":0,"componentType":5125,"count":126948,"type":"SCALAR"}],"asset":{"generator":"VTK","version":"2.0"},"bufferViews":[{"buffer":0,"byteLength":253920,"byteOffset":0},{"buffer":1,"byteLength":253920,"byteOffset":0},{"buffer":2,"byteLength":507792,"byteOffset":0}],"buffers":[{"byteLength":253920,"uri":"data:application/octet-stream;base64,"},{"byteLength":253920,"uri":"data:application/octet-stream;base64,"},{"byteLength":507792,"uri":"data:application/octet-stream;base64,"}],"cameras":[{"perspective":{"aspectRatio":1.3333333333333333,"yfov":0.5235987755982988,"zfar":1000.01,"znear":0.01},"type":"perspective"}],"materials":[{"pbrMetallicRoughness":{"baseColorFactor":[1.0,1.0,1.0,1.0],"metallicFactor":0.0,"roughnessFactor":1.0}}],"meshes":[{"name":"mesh0","primitives":[{"attributes":{"NORMAL":1,"POSITION":0},"indices":2,"material":0,"mode":4}]}],"nodes":[{"matrix":[0.0,0.0,1.0000000000000004,0.0,1.0000000000000004,0.0,0.0,0.0,0.0,1.0000000000000004,0.0,0.0,0.0,0.0,0.0,1.0],"mesh":0,"name":"mesh0"},{"camera":0,"matrix":[1.0,-0.0,0.0,-0.0,-0.0,1.0,-0.0,0.0,0.0,-0.0,1.0,-0.0,-0.0,0.0,1.0,1.0],"name":"Camera Node"},{"children":[0,1],"name":"Renderer Node"}],"scene":0,"scenes":[{"name":"Layer 0","nodes":[2]}]}