{"accessors":[{"bufferView":0,"byteOffset":0,"componentType":5126,"count":715,"max":[0.21328400075435638,0.2067199945449829,0.15843699872493744],"min":[-0.21821600198745728,-0.30985400080680847,-0.18415600061416626],"type":"VEC3"},{"bufferView":1,"byteOffset":0,"componentType":5126,"count":715,"type":"VEC3"},{"bufferView":2,"byteOffset":0,"componentType":5125,"count":4308,"type":"SCALAR"}],"asset":{"generator":"VTK","version":"2.0"},"bufferViews":[{"buffer":0,"byteLength":8580,"byteOffset":0},{"buffer":1,"byteLength":8580,"byteOffset":0},{"buffer":2,"byteLength":17232,"byteOffset":0}],"buffers":[{"byteLength":8580,"uri":"data:application/octet-stream;base64,"},{"byteLength":8580,"uri":"data:application/octet-stream;base64,"},{"byteLength":17232,"uri":"data:application/octet-stream;base64,"}],"cameras":[{"perspective":{"aspectRatio":1.3333333333333333,"yfov":0.5235987755982988,"zfar":1000.01,"znear":0.01},"type":"perspective"}],"materials":[{"pbrMetallicRoughness":{"baseColorFactor":[1.0,1.0,1.0,1.0],"metallicFactor":0.0,"roughnessFactor":1.0}}],"meshes":[{"name":"mesh0","primitives":[{"attributes":{"NORMAL":1,"POSITION":0},"indices":2,"material":0,"mode":4}]}],"nodes":[{"matrix":[0.0,0.0,1.0000000000000004,0.0,1.0000000000000004,0.0,0.0,0.0,0.0,1.0000000000000004,0.0,0.0,0.0,0.0,0.0,1.0],"mesh":0,"name":"mesh0"},{"camera":0,"matrix":[1.0,-0.0,0.0,-0.0,-0.0,1.0,-0.0,0.0,0.0,-0.0,1.0,-0.0,-0.0,0.0,1.0,1.0],"name":"Camera Node"},{"children":[0,1],"name":"Renderer Node"}],"scene":0,"scenes":[{"name":"Layer 0","nodes":[2]}]}