{"accessors":[{"bufferView":0,"byteOffset":0,"componentType":5126,"count":2036,"max":[0.3872140049934387,0.15716500580310822,0.3233327865600586],"min":[-0.38720399141311646,-0.20853200554847717,-0.19230200350284576],"type":"VEC3"},{"bufferView":1,"byteOffset":0,"componentType":5125,"count":45,"type":"SCALAR"},{"bufferView":2,"byteOffset":0,"componentType":5125,"count":276,"type":"SCALAR"},{"bufferView":3,"byteOffset":0,"componentType":5125,"count":14811,"type":"SCALAR"}],"asset":{"generator":"VTK","version":"2.0"},"bufferViews":[{"buffer":0,"byteLength":24432,"byteOffset":0},{"buffer":1,"byteLength":180,"byteOffset":0},{"buffer":2,"byteLength":1104,"byteOffset":0},{"buffer":3,"byteLength":59244,"byteOffset":0}],"buffers":[{"byteLength":24432,"uri":"data:application/octet-stream;base64,"},{"byteLength":180,"uri":"data:application/octet-stream;base64,"},{"byteLength":1104,"uri":"data:application/octet-stream;base64,"},{"byteLength":59244,"uri":"data:application/octet-stream;base64,"}],"cameras":[{"perspective":{"aspectRatio":1.3333333333333333,"yfov":0.5235987755982988,"zfar":1000.01,"znear":0.01},"type":"perspective"}],"materials":[{"pbrMetallicRoughness":{"baseColorFactor":[1.0,1.0,1.0,1.0],"metallicFactor":0.0,"roughnessFactor":1.0}}],"meshes":[{"name":"mesh0","primitives":[{"attributes":{"POSITION":0},"indices":1,"material":0,"mode":0},{"attributes":{"POSITION":0},"indices":2,"mode":1},{"attributes":{"POSITION":0},"indices":3,"mode":4}]}],"nodes":[{"matrix":[0.0,0.0,1.0000000000000004,0.0,1.0000000000000004,0.0,0.0,0.0,0.0,1.0000000000000004,0.0,0.0,0.0,0.0,0.0,1.0],"mesh":0,"name":"mesh0"},{"camera":0,"matrix":[1.0,-0.0,0.0,-0.0,-0.0,1.0,-0.0,0.0,0.0,-0.0,1.0,-0.0,-0.0,0.0,1.0,1.0],"name":"Camera Node"},{"children":[0,1],"name":"Renderer Node"}],"scene":0,"scenes":[{"name":"Layer 0","nodes":[2]}]}