{"accessors":[{"bufferView":0,"byteOffset":0,"componentType":5126,"count":690,"max":[0.3168832063674927,0.15399861335754395,0.3208376169204712],"min":[-0.31851935386657715,-0.15584808588027954,-0.31945711374282837],"type":"VEC3"},{"bufferView":1,"byteOffset":0,"componentType":5126,"count":690,"normalized":false,"type":"VEC2"},{"bufferView":2,"byteOffset":0,"componentType":5125,"count":3228,"type":"SCALAR"}],"asset":{"generator":"VTK","version":"2.0"},"bufferViews":[{"buffer":0,"byteLength":8280,"byteOffset":0},{"buffer":1,"byteLength":5520,"byteOffset":0},{"buffer":2,"byteLength":12912,"byteOffset":0},{"buffer":3,"byteLength":2202,"byteOffset":0}],"buffers":[{"byteLength":8280,"uri":"data:application/octet-stream;base64,"},{"byteLength":5520,"uri":"data:application/octet-stream;base64,"},{"byteLength":12912,"uri":"data:application/octet-stream;base64,"},{"byteLength":2202,"uri":"data:application/octet-stream;base64,"}],"cameras":[{"perspective":{"aspectRatio":1.3333333333333333,"yfov":0.5235987755982988,"zfar":1000.01,"znear":0.01},"type":"perspective"}],"images":[{"bufferView":3,"mimeType":"image/png"}],"materials":[{"pbrMetallicRoughness":{"baseColorFactor":[1.0,1.0,1.0,1.0],"baseColorTexture":{"index":0,"texCoord":0},"metallicFactor":0.0,"roughnessFactor":1.0}}],"meshes":[{"name":"mesh0","primitives":[{"attributes":{"POSITION":0,"TEXCOORD_0":1},"indices":2,"material":0,"mode":4}]}],"nodes":[{"matrix":[0.0,0.0,1.0000000000000004,0.0,1.0000000000000004,0.0,0.0,0.0,0.0,1.0000000000000004,0.0,0.0,0.0,0.0,0.0,1.0],"mesh":0,"name":"mesh0"},{"camera":0,"matrix":[1.0,-0.0,0.0,-0.0,-0.0,1.0,-0.0,0.0,0.0,-0.0,1.0,-0.0,-0.0,0.0,1.0,1.0],"name":"Camera Node"},{"children":[0,1],"name":"Renderer Node"}],"samplers":[{"magFilter":9728,"minFilter":9728,"wrapS":10497,"wrapT":10497}],"scene":0,"scenes":[{"name":"Layer 0","nodes":[2]}],"textures":[{"sampler":0,"source":0}]}