{"accessors":[{"bufferView":0,"byteOffset":0,"componentType":5126,"count":911,"max":[0.2867968678474426,0.22888271510601044,0.3343415856361389],"min":[-0.30088043212890625,-0.07585229724645615,-0.370728462934494],"type":"VEC3"},{"bufferView":1,"byteOffset":0,"componentType":5125,"count":1,"type":"SCALAR"},{"bufferView":2,"byteOffset":0,"componentType":5125,"count":180,"type":"SCALAR"},{"bufferView":3,"byteOffset":0,"componentType":5125,"count":8799,"type":"SCALAR"}],"asset":{"generator":"VTK","version":"2.0"},"bufferViews":[{"buffer":0,"byteLength":10932,"byteOffset":0},{"buffer":1,"byteLength":4,"byteOffset":0},{"buffer":2,"byteLength":720,"byteOffset":0},{"buffer":3,"byteLength":35196,"byteOffset":0}],"buffers":[{"byteLength":10932,"uri":"data:application/octet-stream;base64,"},{"byteLength":4,"uri":"data:application/octet-stream;base64,"},{"byteLength":720,"uri":"data:application/octet-stream;base64,"},{"byteLength":35196,"uri":"data:application/octet-stream;base64,"}],"cameras":[{"perspective":{"aspectRatio":1.3333333333333333,"yfov":0.5235987755982988,"zfar":1000.01,"znear":0.01},"type":"perspective"}],"materials":[{"pbrMetallicRoughness":{"baseColorFactor":[1.0,1.0,1.0,1.0],"metallicFactor":0.0,"roughnessFactor":1.0}}],"meshes":[{"name":"mesh0","primitives":[{"attributes":{"POSITION":0},"indices":1,"material":0,"mode":0},{"attributes":{"POSITION":0},"indices":2,"mode":1},{"attributes":{"POSITION":0},"indices":3,"mode":4}]}],"nodes":[{"matrix":[0.0,0.0,1.0000000000000004,0.0,1.0000000000000004,0.0,0.0,0.0,0.0,1.0000000000000004,0.0,0.0,0.0,0.0,0.0,1.0],"mesh":0,"name":"mesh0"},{"camera":0,"matrix":[1.0,-0.0,0.0,-0.0,-0.0,1.0,-0.0,0.0,0.0,-0.0,1.0,-0.0,-0.0,0.0,1.0,1.0],"name":"Camera Node"},{"children":[0,1],"name":"Renderer Node"}],"scene":0,"scenes":[{"name":"Layer 0","nodes":[2]}]}