{"accessors":[{"bufferView":0,"byteOffset":0,"componentType":5126,"count":868,"max":[0.4787363111972809,0.33675795793533325,0.5409610867500305],"min":[-0.4621884822845459,-0.3905940055847168,-0.25298529863357544],"type":"VEC3"},{"bufferView":1,"byteOffset":0,"componentType":5125,"count":13,"type":"SCALAR"},{"bufferView":2,"byteOffset":0,"componentType":5125,"count":272,"type":"SCALAR"},{"bufferView":3,"byteOffset":0,"componentType":5125,"count":6876,"type":"SCALAR"}],"asset":{"generator":"VTK","version":"2.0"},"bufferViews":[{"buffer":0,"byteLength":10416,"byteOffset":0},{"buffer":1,"byteLength":52,"byteOffset":0},{"buffer":2,"byteLength":1088,"byteOffset":0},{"buffer":3,"byteLength":27504,"byteOffset":0}],"buffers":[{"byteLength":10416,"uri":"data:application/octet-stream;base64,"},{"byteLength":52,"uri":"data:application/octet-stream;base64,"},{"byteLength":1088,"uri":"data:application/octet-stream;base64,"},{"byteLength":27504,"uri":"data:application/octet-stream;base64,"}],"cameras":[{"perspective":{"aspectRatio":1.3333333333333333,"yfov":0.5235987755982988,"zfar":1000.01,"znear":0.01},"type":"perspective"}],"materials":[{"pbrMetallicRoughness":{"baseColorFactor":[1.0,1.0,1.0,1.0],"metallicFactor":0.0,"roughnessFactor":1.0}}],"meshes":[{"name":"mesh0","primitives":[{"attributes":{"POSITION":0},"indices":1,"material":0,"mode":0},{"attributes":{"POSITION":0},"indices":2,"mode":1},{"attributes":{"POSITION":0},"indices":3,"mode":4}]}],"nodes":[{"matrix":[0.0,0.0,1.0000000000000004,0.0,1.0000000000000004,0.0,0.0,0.0,0.0,1.0000000000000004,0.0,0.0,0.0,0.0,0.0,1.0],"mesh":0,"name":"mesh0"},{"camera":0,"matrix":[1.0,-0.0,0.0,-0.0,-0.0,1.0,-0.0,0.0,0.0,-0.0,1.0,-0.0,-0.0,0.0,1.0,1.0],"name":"Camera Node"},{"children":[0,1],"name":"Renderer Node"}],"scene":0,"scenes":[{"name":"Layer 0","nodes":[2]}]}