{"accessors":[{"bufferView":0,"byteOffset":0,"componentType":5126,"count":2048,"max":[0.2870030105113983,0.3734779953956604,0.2481199949979782],"min":[-0.2985300123691559,-0.23838399350643158,-0.22227199375629425],"type":"VEC3"},{"bufferView":1,"byteOffset":0,"componentType":5126,"count":2048,"type":"VEC3"},{"bufferView":2,"byteOffset":0,"componentType":5125,"count":222,"type":"SCALAR"}],"asset":{"generator":"VTK","version":"2.0"},"bufferViews":[{"buffer":0,"byteLength":24576,"byteOffset":0},{"buffer":1,"byteLength":24576,"byteOffset":0},{"buffer":2,"byteLength":888,"byteOffset":0}],"buffers":[{"byteLength":24576,"uri":"data:application/octet-stream;base64,"},{"byteLength":24576,"uri":"data:application/octet-stream;base64,"},{"byteLength":888,"uri":"data:application/octet-stream;base64,"}],"cameras":[{"perspective":{"aspectRatio":1.3333333333333333,"yfov":0.5235987755982988,"zfar":1000.01,"znear":0.01},"type":"perspective"}],"materials":[{"pbrMetallicRoughness":{"baseColorFactor":[1.0,1.0,1.0,1.0],"metallicFactor":0.0,"roughnessFactor":1.0}}],"meshes":[{"name":"mesh0","primitives":[{"attributes":{"NORMAL":1,"POSITION":0},"indices":2,"material":0,"mode":4}]}],"nodes":[{"matrix":[0.0,0.0,1.0000000000000004,0.0,1.0000000000000004,0.0,0.0,0.0,0.0,1.0000000000000004,0.0,0.0,0.0,0.0,0.0,1.0],"mesh":0,"name":"mesh0"},{"camera":0,"matrix":[1.0,-0.0,0.0,-0.0,-0.0,1.0,-0.0,0.0,0.0,-0.0,1.0,-0.0,-0.0,0.0,1.0,1.0],"name":"Camera Node"},{"children":[0,1],"name":"Renderer Node"}],"scene":0,"scenes":[{"name":"Layer 0","nodes":[2]}]}