{"accessors":[{"bufferView":0,"byteOffset":0,"componentType":5126,"count":100000,"max":[0.3583674132823944,0.2839594781398773,0.2897234261035919],"min":[-0.056561101227998734,-0.14842689037322998,-0.0640254020690918],"type":"VEC3"},{"bufferView":1,"byteOffset":0,"componentType":5125,"count":49665,"type":"SCALAR"}],"asset":{"generator":"VTK","version":"2.0"},"bufferViews":[{"buffer":0,"byteLength":1200000,"byteOffset":0},{"buffer":1,"byteLength":198660,"byteOffset":0}],"buffers":[{"byteLength":1200000,"uri":"data:application/octet-stream;base64,"},{"byteLength":198660,"uri":"data:application/octet-stream;base64,"}],"cameras":[{"perspective":{"aspectRatio":1.3333333333333333,"yfov":0.5235987755982988,"zfar":1000.01,"znear":0.01},"type":"perspective"}],"materials":[{"pbrMetallicRoughness":{"baseColorFactor":[1.0,1.0,1.0,1.0],"metallicFactor":0.0,"roughnessFactor":1.0}}],"meshes":[{"name":"mesh0","primitives":[{"attributes":{"POSITION":0},"indices":1,"material":0,"mode":4}]}],"nodes":[{"matrix":[0.0,0.0,1.0000000000000004,0.0,1.0000000000000004,0.0,0.0,0.0,0.0,1.0000000000000004,0.0,0.0,0.0,0.0,0.0,1.0],"mesh":0,"name":"mesh0"},{"camera":0,"matrix":[1.0,-0.0,0.0,-0.0,-0.0,1.0,-0.0,0.0,0.0,-0.0,1.0,-0.0,-0.0,0.0,1.0,1.0],"name":"Camera Node"},{"children":[0,1],"name":"Renderer Node"}],"scene":0,"scenes":[{"name":"Layer 0","nodes":[2]}]}