{"accessors":[{"bufferView":0,"byteOffset":0,"componentType":5126,"count":888,"max":[0.2965250015258789,0.26835599541664124,0.17593799531459808],"min":[-0.27712398767471313,-0.37662601470947266,-0.1710589975118637],"type":"VEC3"},{"bufferView":1,"byteOffset":0,"componentType":5126,"count":888,"type":"VEC3"},{"bufferView":2,"byteOffset":0,"componentType":5125,"count":5358,"type":"SCALAR"}],"asset":{"generator":"VTK","version":"2.0"},"bufferViews":[{"buffer":0,"byteLength":10656,"byteOffset":0},{"buffer":1,"byteLength":10656,"byteOffset":0},{"buffer":2,"byteLength":21432,"byteOffset":0}],"buffers":[{"byteLength":10656,"uri":"data:application/octet-stream;base64,"},{"byteLength":10656,"uri":"data:application/octet-stream;base64,"},{"byteLength":21432,"uri":"data:application/octet-stream;base64,"}],"cameras":[{"perspective":{"aspectRatio":1.3333333333333333,"yfov":0.5235987755982988,"zfar":1000.01,"znear":0.01},"type":"perspective"}],"materials":[{"pbrMetallicRoughness":{"baseColorFactor":[1.0,1.0,1.0,1.0],"metallicFactor":0.0,"roughnessFactor":1.0}}],"meshes":[{"name":"mesh0","primitives":[{"attributes":{"NORMAL":1,"POSITION":0},"indices":2,"material":0,"mode":4}]}],"nodes":[{"matrix":[0.0,0.0,1.0000000000000004,0.0,1.0000000000000004,0.0,0.0,0.0,0.0,1.0000000000000004,0.0,0.0,0.0,0.0,0.0,1.0],"mesh":0,"name":"mesh0"},{"camera":0,"matrix":[1.0,-0.0,0.0,-0.0,-0.0,1.0,-0.0,0.0,0.0,-0.0,1.0,-0.0,-0.0,0.0,1.0,1.0],"name":"Camera Node"},{"children":[0,1],"name":"Renderer Node"}],"scene":0,"scenes":[{"name":"Layer 0","nodes":[2]}]}