{"accessors":[{"bufferView":0,"byteOffset":0,"componentType":5126,"count":867,"max":[0.3325071930885315,0.14376169443130493,0.33791065216064453],"min":[-0.38273489475250244,-0.1335548609495163,-0.34903189539909363],"type":"VEC3"},{"bufferView":1,"byteOffset":0,"componentType":5125,"count":122,"type":"SCALAR"},{"bufferView":2,"byteOffset":0,"componentType":5125,"count":7911,"type":"SCALAR"}],"asset":{"generator":"VTK","version":"2.0"},"bufferViews":[{"buffer":0,"byteLength":10404,"byteOffset":0},{"buffer":1,"byteLength":488,"byteOffset":0},{"buffer":2,"byteLength":31644,"byteOffset":0}],"buffers":[{"byteLength":10404,"uri":"data:application/octet-stream;base64,"},{"byteLength":488,"uri":"data:application/octet-stream;base64,"},{"byteLength":31644,"uri":"data:application/octet-stream;base64,"}],"cameras":[{"perspective":{"aspectRatio":1.3333333333333333,"yfov":0.5235987755982988,"zfar":1000.01,"znear":0.01},"type":"perspective"}],"materials":[{"pbrMetallicRoughness":{"baseColorFactor":[1.0,1.0,1.0,1.0],"metallicFactor":0.0,"roughnessFactor":1.0}}],"meshes":[{"name":"mesh0","primitives":[{"attributes":{"POSITION":0},"indices":1,"material":0,"mode":1},{"attributes":{"POSITION":0},"indices":2,"mode":4}]}],"nodes":[{"matrix":[0.0,0.0,1.0000000000000004,0.0,1.0000000000000004,0.0,0.0,0.0,0.0,1.0000000000000004,0.0,0.0,0.0,0.0,0.0,1.0],"mesh":0,"name":"mesh0"},{"camera":0,"matrix":[1.0,-0.0,0.0,-0.0,-0.0,1.0,-0.0,0.0,0.0,-0.0,1.0,-0.0,-0.0,0.0,1.0,1.0],"name":"Camera Node"},{"children":[0,1],"name":"Renderer Node"}],"scene":0,"scenes":[{"name":"Layer 0","nodes":[2]}]}