{"accessors":[{"bufferView":0,"byteOffset":0,"componentType":5126,"count":695,"max":[0.24963800609111786,0.0654103010892868,0.13260899484157562],"min":[-0.46653300523757935,-0.2812359929084778,-0.24605800211429596],"type":"VEC3"},{"bufferView":1,"byteOffset":0,"componentType":5126,"count":695,"type":"VEC3"},{"bufferView":2,"byteOffset":0,"componentType":5125,"count":4212,"type":"SCALAR"}],"asset":{"generator":"VTK","version":"2.0"},"bufferViews":[{"buffer":0,"byteLength":8340,"byteOffset":0},{"buffer":1,"byteLength":8340,"byteOffset":0},{"buffer":2,"byteLength":16848,"byteOffset":0}],"buffers":[{"byteLength":8340,"uri":"data:application/octet-stream;base64,"},{"byteLength":8340,"uri":"data:application/octet-stream;base64,"},{"byteLength":16848,"uri":"data:application/octet-stream;base64,"}],"cameras":[{"perspective":{"aspectRatio":1.3333333333333333,"yfov":0.5235987755982988,"zfar":1000.01,"znear":0.01},"type":"perspective"}],"materials":[{"pbrMetallicRoughness":{"baseColorFactor":[1.0,1.0,1.0,1.0],"metallicFactor":0.0,"roughnessFactor":1.0}}],"meshes":[{"name":"mesh0","primitives":[{"attributes":{"NORMAL":1,"POSITION":0},"indices":2,"material":0,"mode":4}]}],"nodes":[{"matrix":[0.0,0.0,1.0000000000000004,0.0,1.0000000000000004,0.0,0.0,0.0,0.0,1.0000000000000004,0.0,0.0,0.0,0.0,0.0,1.0],"mesh":0,"name":"mesh0"},{"camera":0,"matrix":[1.0,-0.0,0.0,-0.0,-0.0,1.0,-0.0,0.0,0.0,-0.0,1.0,-0.0,-0.0,0.0,1.0,1.0],"name":"Camera Node"},{"children":[0,1],"name":"Renderer Node"}],"scene":0,"scenes":[{"name":"Layer 0","nodes":[2]}]}