{"accessors":[{"bufferView":0,"byteOffset":0,"componentType":5126,"count":478,"max":[0.33723801374435425,0.06790240108966827,0.22170500457286835],"min":[-0.34506601095199585,-0.12948299944400787,-0.2502950131893158],"type":"VEC3"},{"bufferView":1,"byteOffset":0,"componentType":5126,"count":478,"type":"VEC3"},{"bufferView":2,"byteOffset":0,"componentType":5125,"count":2856,"type":"SCALAR"}],"asset":{"generator":"VTK","version":"2.0"},"bufferViews":[{"buffer":0,"byteLength":5736,"byteOffset":0},{"buffer":1,"byteLength":5736,"byteOffset":0},{"buffer":2,"byteLength":11424,"byteOffset":0}],"buffers":[{"byteLength":5736,"uri":"data:application/octet-stream;base64,"},{"byteLength":5736,"uri":"data:application/octet-stream;base64,"},{"byteLength":11424,"uri":"data:application/octet-stream;base64,"}],"cameras":[{"perspective":{"aspectRatio":1.3333333333333333,"yfov":0.5235987755982988,"zfar":1000.01,"znear":0.01},"type":"perspective"}],"materials":[{"pbrMetallicRoughness":{"baseColorFactor":[1.0,1.0,1.0,1.0],"metallicFactor":0.0,"roughnessFactor":1.0}}],"meshes":[{"name":"mesh0","primitives":[{"attributes":{"NORMAL":1,"POSITION":0},"indices":2,"material":0,"mode":4}]}],"nodes":[{"matrix":[0.0,0.0,1.0000000000000004,0.0,1.0000000000000004,0.0,0.0,0.0,0.0,1.0000000000000004,0.0,0.0,0.0,0.0,0.0,1.0],"mesh":0,"name":"mesh0"},{"camera":0,"matrix":[1.0,-0.0,0.0,-0.0,-0.0,1.0,-0.0,0.0,0.0,-0.0,1.0,-0.0,-0.0,0.0,1.0,1.0],"name":"Camera Node"},{"children":[0,1],"name":"Renderer Node"}],"scene":0,"scenes":[{"name":"Layer 0","nodes":[2]}]}