{"accessors":[{"bufferView":0,"byteOffset":0,"componentType":5126,"count":23734,"max":[0.20364299416542053,0.15297800302505493,0.10312099754810333],"min":[-0.2429099977016449,-0.5074210166931152,-0.1939759999513626],"type":"VEC3"},{"bufferView":1,"byteOffset":0,"componentType":5126,"count":23734,"type":"VEC3"},{"bufferView":2,"byteOffset":0,"componentType":5125,"count":142392,"type":"SCALAR"}],"asset":{"generator":"VTK","version":"2.0"},"bufferViews":[{"buffer":0,"byteLength":284808,"byteOffset":0},{"buffer":1,"byteLength":284808,"byteOffset":0},{"buffer":2,"byteLength":569568,"byteOffset":0}],"buffers":[{"byteLength":284808,"uri":"data:application/octet-stream;base64,"},{"byteLength":284808,"uri":"data:application/octet-stream;base64,"},{"byteLength":569568,"uri":"data:application/octet-stream;base64,"}],"cameras":[{"perspective":{"aspectRatio":1.3333333333333333,"yfov":0.5235987755982988,"zfar":1000.01,"znear":0.01},"type":"perspective"}],"materials":[{"pbrMetallicRoughness":{"baseColorFactor":[1.0,1.0,1.0,1.0],"metallicFactor":0.0,"roughnessFactor":1.0}}],"meshes":[{"name":"mesh0","primitives":[{"attributes":{"NORMAL":1,"POSITION":0},"indices":2,"material":0,"mode":4}]}],"nodes":[{"matrix":[0.0,0.0,1.0000000000000004,0.0,1.0000000000000004,0.0,0.0,0.0,0.0,1.0000000000000004,0.0,0.0,0.0,0.0,0.0,1.0],"mesh":0,"name":"mesh0"},{"camera":0,"matrix":[1.0,-0.0,0.0,-0.0,-0.0,1.0,-0.0,0.0,0.0,-0.0,1.0,-0.0,-0.0,0.0,1.0,1.0],"name":"Camera Node"},{"children":[0,1],"name":"Renderer Node"}],"scene":0,"scenes":[{"name":"Layer 0","nodes":[2]}]}