{"accessors":[{"bufferView":0,"byteOffset":0,"componentType":5126,"count":22226,"max":[0.5135639905929565,0.6751700043678284,0.479108989238739],"min":[-0.5353569984436035,-0.15891799330711365,-0.2791149914264679],"type":"VEC3"},{"bufferView":1,"byteOffset":0,"componentType":5126,"count":22226,"type":"VEC3"},{"bufferView":2,"byteOffset":0,"componentType":5125,"count":133332,"type":"SCALAR"}],"asset":{"generator":"VTK","version":"2.0"},"bufferViews":[{"buffer":0,"byteLength":266712,"byteOffset":0},{"buffer":1,"byteLength":266712,"byteOffset":0},{"buffer":2,"byteLength":533328,"byteOffset":0}],"buffers":[{"byteLength":266712,"uri":"data:application/octet-stream;base64,"},{"byteLength":266712,"uri":"data:application/octet-stream;base64,"},{"byteLength":533328,"uri":"data:application/octet-stream;base64,"}],"cameras":[{"perspective":{"aspectRatio":1.3333333333333333,"yfov":0.5235987755982988,"zfar":1000.01,"znear":0.01},"type":"perspective"}],"materials":[{"pbrMetallicRoughness":{"baseColorFactor":[1.0,1.0,1.0,1.0],"metallicFactor":0.0,"roughnessFactor":1.0}}],"meshes":[{"name":"mesh0","primitives":[{"attributes":{"NORMAL":1,"POSITION":0},"indices":2,"material":0,"mode":4}]}],"nodes":[{"matrix":[0.0,0.0,1.0000000000000004,0.0,1.0000000000000004,0.0,0.0,0.0,0.0,1.0000000000000004,0.0,0.0,0.0,0.0,0.0,1.0],"mesh":0,"name":"mesh0"},{"camera":0,"matrix":[1.0,-0.0,0.0,-0.0,-0.0,1.0,-0.0,0.0,0.0,-0.0,1.0,-0.0,-0.0,0.0,1.0,1.0],"name":"Camera Node"},{"children":[0,1],"name":"Renderer Node"}],"scene":0,"scenes":[{"name":"Layer 0","nodes":[2]}]}