{"accessors":[{"bufferView":0,"byteOffset":0,"componentType":5126,"count":3166,"max":[0.32071900367736816,0.19700099527835846,0.1006689965724945],"min":[-0.04186340048909187,-0.05209669843316078,-0.023905299603939056],"type":"VEC3"},{"bufferView":1,"byteOffset":0,"componentType":5126,"count":3166,"type":"VEC3"},{"bufferView":2,"byteOffset":0,"componentType":5125,"count":17292,"type":"SCALAR"}],"asset":{"generator":"VTK","version":"2.0"},"bufferViews":[{"buffer":0,"byteLength":37992,"byteOffset":0},{"buffer":1,"byteLength":37992,"byteOffset":0},{"buffer":2,"byteLength":69168,"byteOffset":0}],"buffers":[{"byteLength":37992,"uri":"data:application/octet-stream;base64,"},{"byteLength":37992,"uri":"data:application/octet-stream;base64,"},{"byteLength":69168,"uri":"data:application/octet-stream;base64,"}],"cameras":[{"perspective":{"aspectRatio":1.3333333333333333,"yfov":0.5235987755982988,"zfar":1000.01,"znear":0.01},"type":"perspective"}],"materials":[{"pbrMetallicRoughness":{"baseColorFactor":[1.0,1.0,1.0,1.0],"metallicFactor":0.0,"roughnessFactor":1.0}}],"meshes":[{"name":"mesh0","primitives":[{"attributes":{"NORMAL":1,"POSITION":0},"indices":2,"material":0,"mode":4}]}],"nodes":[{"matrix":[0.0,0.0,1.0000000000000004,0.0,1.0000000000000004,0.0,0.0,0.0,0.0,1.0000000000000004,0.0,0.0,0.0,0.0,0.0,1.0],"mesh":0,"name":"mesh0"},{"camera":0,"matrix":[1.0,-0.0,0.0,-0.0,-0.0,1.0,-0.0,0.0,0.0,-0.0,1.0,-0.0,-0.0,0.0,1.0,1.0],"name":"Camera Node"},{"children":[0,1],"name":"Renderer Node"}],"scene":0,"scenes":[{"name":"Layer 0","nodes":[2]}]}